<svg xmlns:xlink="http://www.w3.org/1999/xlink" xmlns="http://www.w3.org/2000/svg" width="313.328" height="313.328" class="graphics-default" preserveAspectRatio="xMinYMin" viewBox="-11.200000000000001 -111.2 122.4 122.4"><style stroke="#000000">.graphics-default { stroke:#000; } .graphics-default text { fill:#000; } marker {fill:black;} .graphics-default pattern {stroke:none;fill:#000}</style><defs><pattern id="pattern_diagonal20_black" patternUnits="objectBoundingBox" patternContentUnits="objectBoundingBox" width="0.05" height="0.05" patternTransform="rotate(45)"><rect x="0" y="0" width="0.005" height="1" fill="black"></rect></pattern><pattern id="pattern_diagonal20_black" patternUnits="objectBoundingBox" patternContentUnits="objectBoundingBox" width="0.05" height="0.05" patternTransform="rotate(45)"><rect x="0" y="0" width="0.005" height="1" fill="black"></rect></pattern><pattern id="pattern_diagonal20_black" patternUnits="objectBoundingBox" patternContentUnits="objectBoundingBox" width="0.05" height="0.05" patternTransform="rotate(45)"><rect x="0" y="0" width="0.005" height="1" fill="black"></rect></pattern><pattern id="pattern_diagonal20_black" patternUnits="objectBoundingBox" patternContentUnits="objectBoundingBox" width="0.05" height="0.05" patternTransform="rotate(45)"><rect x="0" y="0" width="0.005" height="1" fill="black"></rect></pattern><pattern id="pattern_diagonal20_black" patternUnits="objectBoundingBox" patternContentUnits="objectBoundingBox" width="0.05" height="0.05" patternTransform="rotate(45)"><rect x="0" y="0" width="0.005" height="1" fill="black"></rect></pattern><pattern id="pattern_diagonal20_black" patternUnits="objectBoundingBox" patternContentUnits="objectBoundingBox" width="0.05" height="0.05" patternTransform="rotate(45)"><rect x="0" y="0" width="0.005" height="1" fill="black"></rect></pattern><pattern id="pattern_diagonal20_black" patternUnits="objectBoundingBox" patternContentUnits="objectBoundingBox" width="0.05" height="0.05" patternTransform="rotate(45)"><rect x="0" y="0" width="0.005" height="1" fill="black"></rect></pattern><pattern id="pattern_diagonal20_black" patternUnits="objectBoundingBox" patternContentUnits="objectBoundingBox" width="0.05" height="0.05" patternTransform="rotate(45)"><rect x="0" y="0" width="0.005" height="1" fill="black"></rect></pattern><pattern id="pattern_diagonal20_black" patternUnits="objectBoundingBox" patternContentUnits="objectBoundingBox" width="0.05" height="0.05" patternTransform="rotate(45)"><rect x="0" y="0" width="0.005" height="1" fill="black"></rect></pattern><pattern id="pattern_diagonal20_black" patternUnits="objectBoundingBox" patternContentUnits="objectBoundingBox" width="0.05" height="0.05" patternTransform="rotate(45)"><rect x="0" y="0" width="0.005" height="1" fill="black"></rect></pattern><pattern id="pattern_diagonal20_black" patternUnits="objectBoundingBox" patternContentUnits="objectBoundingBox" width="0.05" height="0.05" patternTransform="rotate(45)"><rect x="0" y="0" width="0.005" height="1" fill="black"></rect></pattern><pattern id="pattern_diagonal20_black" patternUnits="objectBoundingBox" patternContentUnits="objectBoundingBox" width="0.05" height="0.05" patternTransform="rotate(45)"><rect x="0" y="0" width="0.005" height="1" fill="black"></rect></pattern><pattern id="pattern_diagonal20_black" patternUnits="objectBoundingBox" patternContentUnits="objectBoundingBox" width="0.05" height="0.05" patternTransform="rotate(45)"><rect x="0" y="0" width="0.005" height="1" fill="black"></rect></pattern><pattern id="pattern_diagonal20_black" patternUnits="objectBoundingBox" patternContentUnits="objectBoundingBox" width="0.05" height="0.05" patternTransform="rotate(45)"><rect x="0" y="0" width="0.005" height="1" fill="black"></rect></pattern><pattern id="pattern_diagonal20_black" patternUnits="objectBoundingBox" patternContentUnits="objectBoundingBox" width="0.05" height="0.05" patternTransform="rotate(45)"><rect x="0" y="0" width="0.005" height="1" fill="black"></rect></pattern><pattern id="pattern_diagonal20_black" patternUnits="objectBoundingBox" patternContentUnits="objectBoundingBox" width="0.05" height="0.05" patternTransform="rotate(45)"><rect x="0" y="0" width="0.005" height="1" fill="black"></rect></pattern><pattern id="pattern_diagonal20_black" patternUnits="objectBoundingBox" patternContentUnits="objectBoundingBox" width="0.05" height="0.05" patternTransform="rotate(45)"><rect x="0" y="0" width="0.005" height="1" fill="black"></rect></pattern><pattern id="pattern_diagonal20_black" patternUnits="objectBoundingBox" patternContentUnits="objectBoundingBox" width="0.05" height="0.05" patternTransform="rotate(45)"><rect x="0" y="0" width="0.005" height="1" fill="black"></rect></pattern><pattern id="pattern_diagonal20_black" patternUnits="objectBoundingBox" patternContentUnits="objectBoundingBox" width="0.05" height="0.05" patternTransform="rotate(45)"><rect x="0" y="0" width="0.005" height="1" fill="black"></rect></pattern><pattern id="pattern_diagonal20_black" patternUnits="objectBoundingBox" patternContentUnits="objectBoundingBox" width="0.05" height="0.05" patternTransform="rotate(45)"><rect x="0" y="0" width="0.005" height="1" fill="black"></rect></pattern><pattern id="pattern_diagonal20_black" patternUnits="objectBoundingBox" patternContentUnits="objectBoundingBox" width="0.05" height="0.05" patternTransform="rotate(45)"><rect x="0" y="0" width="0.005" height="1" fill="black"></rect></pattern><pattern id="pattern_diagonal20_black" patternUnits="objectBoundingBox" patternContentUnits="objectBoundingBox" width="0.05" height="0.05" patternTransform="rotate(45)"><rect x="0" y="0" width="0.005" height="1" fill="black"></rect></pattern><pattern id="pattern_diagonal20_black" patternUnits="objectBoundingBox" patternContentUnits="objectBoundingBox" width="0.05" height="0.05" patternTransform="rotate(45)"><rect x="0" y="0" width="0.005" height="1" fill="black"></rect></pattern><pattern id="pattern_diagonal20_black" patternUnits="objectBoundingBox" patternContentUnits="objectBoundingBox" width="0.05" height="0.05" patternTransform="rotate(45)"><rect x="0" y="0" width="0.005" height="1" fill="black"></rect></pattern><pattern id="pattern_diagonal20_black" patternUnits="objectBoundingBox" patternContentUnits="objectBoundingBox" width="0.05" height="0.05" patternTransform="rotate(45)"><rect x="0" y="0" width="0.005" height="1" fill="black"></rect></pattern><pattern id="pattern_diagonal20_black" patternUnits="objectBoundingBox" patternContentUnits="objectBoundingBox" width="0.05" height="0.05" patternTransform="rotate(45)"><rect x="0" y="0" width="0.005" height="1" fill="black"></rect></pattern><pattern id="pattern_diagonal20_black" patternUnits="objectBoundingBox" patternContentUnits="objectBoundingBox" width="0.05" height="0.05" patternTransform="rotate(45)"><rect x="0" y="0" width="0.005" height="1" fill="black"></rect></pattern><pattern id="pattern_diagonal20_black" patternUnits="objectBoundingBox" patternContentUnits="objectBoundingBox" width="0.05" height="0.05" patternTransform="rotate(45)"><rect x="0" y="0" width="0.005" height="1" fill="black"></rect></pattern><pattern id="pattern_diagonal20_black" patternUnits="objectBoundingBox" patternContentUnits="objectBoundingBox" width="0.05" height="0.05" patternTransform="rotate(45)"><rect x="0" y="0" width="0.005" height="1" fill="black"></rect></pattern><pattern id="pattern_diagonal20_black" patternUnits="objectBoundingBox" patternContentUnits="objectBoundingBox" width="0.05" height="0.05" patternTransform="rotate(45)"><rect x="0" y="0" width="0.005" height="1" fill="black"></rect></pattern><pattern id="pattern_diagonal20_black" patternUnits="objectBoundingBox" patternContentUnits="objectBoundingBox" width="0.05" height="0.05" patternTransform="rotate(45)"><rect x="0" y="0" width="0.005" height="1" fill="black"></rect></pattern><pattern id="pattern_diagonal20_black" patternUnits="objectBoundingBox" patternContentUnits="objectBoundingBox" width="0.05" height="0.05" patternTransform="rotate(45)"><rect x="0" y="0" width="0.005" height="1" fill="black"></rect></pattern><pattern id="pattern_diagonal20_black" patternUnits="objectBoundingBox" patternContentUnits="objectBoundingBox" width="0.05" height="0.05" patternTransform="rotate(45)"><rect x="0" y="0" width="0.005" height="1" fill="black"></rect></pattern><pattern id="pattern_diagonal20_black" patternUnits="objectBoundingBox" patternContentUnits="objectBoundingBox" width="0.05" height="0.05" patternTransform="rotate(45)"><rect x="0" y="0" width="0.005" height="1" fill="black"></rect></pattern><pattern id="pattern_diagonal20_black" patternUnits="objectBoundingBox" patternContentUnits="objectBoundingBox" width="0.05" height="0.05" patternTransform="rotate(45)"><rect x="0" y="0" width="0.005" height="1" fill="black"></rect></pattern><pattern id="pattern_diagonal20_black" patternUnits="objectBoundingBox" patternContentUnits="objectBoundingBox" width="0.05" height="0.05" patternTransform="rotate(45)"><rect x="0" y="0" width="0.005" height="1" fill="black"></rect></pattern><pattern id="pattern_diagonal20_black" patternUnits="objectBoundingBox" patternContentUnits="objectBoundingBox" width="0.05" height="0.05" patternTransform="rotate(45)"><rect x="0" y="0" width="0.005" height="1" fill="black"></rect></pattern><pattern id="pattern_diagonal20_black" patternUnits="objectBoundingBox" patternContentUnits="objectBoundingBox" width="0.05" height="0.05" patternTransform="rotate(45)"><rect x="0" y="0" width="0.005" height="1" fill="black"></rect></pattern><pattern id="pattern_diagonal20_black" patternUnits="objectBoundingBox" patternContentUnits="objectBoundingBox" width="0.05" height="0.05" patternTransform="rotate(45)"><rect x="0" y="0" width="0.005" height="1" fill="black"></rect></pattern><pattern id="pattern_diagonal20_black" patternUnits="objectBoundingBox" patternContentUnits="objectBoundingBox" width="0.05" height="0.05" patternTransform="rotate(45)"><rect x="0" y="0" width="0.005" height="1" fill="black"></rect></pattern><pattern id="pattern_diagonal20_black" patternUnits="objectBoundingBox" patternContentUnits="objectBoundingBox" width="0.05" height="0.05" patternTransform="rotate(45)"><rect x="0" y="0" width="0.005" height="1" fill="black"></rect></pattern><pattern id="pattern_diagonal20_black" patternUnits="objectBoundingBox" patternContentUnits="objectBoundingBox" width="0.05" height="0.05" patternTransform="rotate(45)"><rect x="0" y="0" width="0.005" height="1" fill="black"></rect></pattern><pattern id="pattern_diagonal20_black" patternUnits="objectBoundingBox" patternContentUnits="objectBoundingBox" width="0.05" height="0.05" patternTransform="rotate(45)"><rect x="0" y="0" width="0.005" height="1" fill="black"></rect></pattern><pattern id="pattern_diagonal20_black" patternUnits="objectBoundingBox" patternContentUnits="objectBoundingBox" width="0.05" height="0.05" patternTransform="rotate(45)"><rect x="0" y="0" width="0.005" height="1" fill="black"></rect></pattern><pattern id="pattern_diagonal20_black" patternUnits="objectBoundingBox" patternContentUnits="objectBoundingBox" width="0.05" height="0.05" patternTransform="rotate(45)"><rect x="0" y="0" width="0.005" height="1" fill="black"></rect></pattern><pattern id="pattern_diagonal20_black" patternUnits="objectBoundingBox" patternContentUnits="objectBoundingBox" width="0.05" height="0.05" patternTransform="rotate(45)"><rect x="0" y="0" width="0.005" height="1" fill="black"></rect></pattern><pattern id="pattern_diagonal20_black" patternUnits="objectBoundingBox" patternContentUnits="objectBoundingBox" width="0.05" height="0.05" patternTransform="rotate(45)"><rect x="0" y="0" width="0.005" height="1" fill="black"></rect></pattern><pattern id="pattern_diagonal20_black" patternUnits="objectBoundingBox" patternContentUnits="objectBoundingBox" width="0.05" height="0.05" patternTransform="rotate(45)"><rect x="0" y="0" width="0.005" height="1" fill="black"></rect></pattern><pattern id="pattern_diagonal20_black" patternUnits="objectBoundingBox" patternContentUnits="objectBoundingBox" width="0.05" height="0.05" patternTransform="rotate(45)"><rect x="0" y="0" width="0.005" height="1" fill="black"></rect></pattern><pattern id="pattern_diagonal20_black" patternUnits="objectBoundingBox" patternContentUnits="objectBoundingBox" width="0.05" height="0.05" patternTransform="rotate(45)"><rect x="0" y="0" width="0.005" height="1" fill="black"></rect></pattern><pattern id="pattern_diagonal20_black" patternUnits="objectBoundingBox" patternContentUnits="objectBoundingBox" width="0.05" height="0.05" patternTransform="rotate(45)"><rect x="0" y="0" width="0.005" height="1" fill="black"></rect></pattern><pattern id="pattern_diagonal20_black" patternUnits="objectBoundingBox" patternContentUnits="objectBoundingBox" width="0.05" height="0.05" patternTransform="rotate(45)"><rect x="0" y="0" width="0.005" height="1" fill="black"></rect></pattern><pattern id="pattern_diagonal20_black" patternUnits="objectBoundingBox" patternContentUnits="objectBoundingBox" width="0.05" height="0.05" patternTransform="rotate(45)"><rect x="0" y="0" width="0.005" height="1" fill="black"></rect></pattern><pattern id="pattern_diagonal20_black" patternUnits="objectBoundingBox" patternContentUnits="objectBoundingBox" width="0.05" height="0.05" patternTransform="rotate(45)"><rect x="0" y="0" width="0.005" height="1" fill="black"></rect></pattern><pattern id="pattern_diagonal20_black" patternUnits="objectBoundingBox" patternContentUnits="objectBoundingBox" width="0.05" height="0.05" patternTransform="rotate(45)"><rect x="0" y="0" width="0.005" height="1" fill="black"></rect></pattern><pattern id="pattern_diagonal20_black" patternUnits="objectBoundingBox" patternContentUnits="objectBoundingBox" width="0.05" height="0.05" patternTransform="rotate(45)"><rect x="0" y="0" width="0.005" height="1" fill="black"></rect></pattern><pattern id="pattern_diagonal20_black" patternUnits="objectBoundingBox" patternContentUnits="objectBoundingBox" width="0.05" height="0.05" patternTransform="rotate(45)"><rect x="0" y="0" width="0.005" height="1" fill="black"></rect></pattern><pattern id="pattern_diagonal20_black" patternUnits="objectBoundingBox" patternContentUnits="objectBoundingBox" width="0.05" height="0.05" patternTransform="rotate(45)"><rect x="0" y="0" width="0.005" height="1" fill="black"></rect></pattern><pattern id="pattern_diagonal20_black" patternUnits="objectBoundingBox" patternContentUnits="objectBoundingBox" width="0.05" height="0.05" patternTransform="rotate(45)"><rect x="0" y="0" width="0.005" height="1" fill="black"></rect></pattern><pattern id="pattern_diagonal20_black" patternUnits="objectBoundingBox" patternContentUnits="objectBoundingBox" width="0.05" height="0.05" patternTransform="rotate(45)"><rect x="0" y="0" width="0.005" height="1" fill="black"></rect></pattern><pattern id="pattern_diagonal20_black" patternUnits="objectBoundingBox" patternContentUnits="objectBoundingBox" width="0.05" height="0.05" patternTransform="rotate(45)"><rect x="0" y="0" width="0.005" height="1" fill="black"></rect></pattern><pattern id="pattern_diagonal20_black" patternUnits="objectBoundingBox" patternContentUnits="objectBoundingBox" width="0.05" height="0.05" patternTransform="rotate(45)"><rect x="0" y="0" width="0.005" height="1" fill="black"></rect></pattern><pattern id="pattern_diagonal20_black" patternUnits="objectBoundingBox" patternContentUnits="objectBoundingBox" width="0.05" height="0.05" patternTransform="rotate(45)"><rect x="0" y="0" width="0.005" height="1" fill="black"></rect></pattern><pattern id="pattern_diagonal20_black" patternUnits="objectBoundingBox" patternContentUnits="objectBoundingBox" width="0.05" height="0.05" patternTransform="rotate(45)"><rect x="0" y="0" width="0.005" height="1" fill="black"></rect></pattern><pattern id="pattern_diagonal20_black" patternUnits="objectBoundingBox" patternContentUnits="objectBoundingBox" width="0.05" height="0.05" patternTransform="rotate(45)"><rect x="0" y="0" width="0.005" height="1" fill="black"></rect></pattern><pattern id="pattern_diagonal20_black" patternUnits="objectBoundingBox" patternContentUnits="objectBoundingBox" width="0.05" height="0.05" patternTransform="rotate(45)"><rect x="0" y="0" width="0.005" height="1" fill="black"></rect></pattern><pattern id="pattern_diagonal20_black" patternUnits="objectBoundingBox" patternContentUnits="objectBoundingBox" width="0.05" height="0.05" patternTransform="rotate(45)"><rect x="0" y="0" width="0.005" height="1" fill="black"></rect></pattern><pattern id="pattern_diagonal20_black" patternUnits="objectBoundingBox" patternContentUnits="objectBoundingBox" width="0.05" height="0.05" patternTransform="rotate(45)"><rect x="0" y="0" width="0.005" height="1" fill="black"></rect></pattern><pattern id="pattern_diagonal20_black" patternUnits="objectBoundingBox" patternContentUnits="objectBoundingBox" width="0.05" height="0.05" patternTransform="rotate(45)"><rect x="0" y="0" width="0.005" height="1" fill="black"></rect></pattern><pattern id="pattern_diagonal20_black" patternUnits="objectBoundingBox" patternContentUnits="objectBoundingBox" width="0.05" height="0.05" patternTransform="rotate(45)"><rect x="0" y="0" width="0.005" height="1" fill="black"></rect></pattern><pattern id="pattern_diagonal20_black" patternUnits="objectBoundingBox" patternContentUnits="objectBoundingBox" width="0.05" height="0.05" patternTransform="rotate(45)"><rect x="0" y="0" width="0.005" height="1" fill="black"></rect></pattern><pattern id="pattern_diagonal20_black" patternUnits="objectBoundingBox" patternContentUnits="objectBoundingBox" width="0.05" height="0.05" patternTransform="rotate(45)"><rect x="0" y="0" width="0.005" height="1" fill="black"></rect></pattern><pattern id="pattern_diagonal20_black" patternUnits="objectBoundingBox" patternContentUnits="objectBoundingBox" width="0.05" height="0.05" patternTransform="rotate(45)"><rect x="0" y="0" width="0.005" height="1" fill="black"></rect></pattern><pattern id="pattern_diagonal20_black" patternUnits="objectBoundingBox" patternContentUnits="objectBoundingBox" width="0.05" height="0.05" patternTransform="rotate(45)"><rect x="0" y="0" width="0.005" height="1" fill="black"></rect></pattern><pattern id="pattern_diagonal20_black" patternUnits="objectBoundingBox" patternContentUnits="objectBoundingBox" width="0.05" height="0.05" patternTransform="rotate(45)"><rect x="0" y="0" width="0.005" height="1" fill="black"></rect></pattern><pattern id="pattern_diagonal20_black" patternUnits="objectBoundingBox" patternContentUnits="objectBoundingBox" width="0.05" height="0.05" patternTransform="rotate(45)"><rect x="0" y="0" width="0.005" height="1" fill="black"></rect></pattern><pattern id="pattern_diagonal20_black" patternUnits="objectBoundingBox" patternContentUnits="objectBoundingBox" width="0.05" height="0.05" patternTransform="rotate(45)"><rect x="0" y="0" width="0.005" height="1" fill="black"></rect></pattern><pattern id="pattern_diagonal20_black" patternUnits="objectBoundingBox" patternContentUnits="objectBoundingBox" width="0.05" height="0.05" patternTransform="rotate(45)"><rect x="0" y="0" width="0.005" height="1" fill="black"></rect></pattern><pattern id="pattern_diagonal20_black" patternUnits="objectBoundingBox" patternContentUnits="objectBoundingBox" width="0.05" height="0.05" patternTransform="rotate(45)"><rect x="0" y="0" width="0.005" height="1" fill="black"></rect></pattern><pattern id="pattern_diagonal20_black" patternUnits="objectBoundingBox" patternContentUnits="objectBoundingBox" width="0.05" height="0.05" patternTransform="rotate(45)"><rect x="0" y="0" width="0.005" height="1" fill="black"></rect></pattern><pattern id="pattern_diagonal20_black" patternUnits="objectBoundingBox" patternContentUnits="objectBoundingBox" width="0.05" height="0.05" patternTransform="rotate(45)"><rect x="0" y="0" width="0.005" height="1" fill="black"></rect></pattern><pattern id="pattern_diagonal20_black" patternUnits="objectBoundingBox" patternContentUnits="objectBoundingBox" width="0.05" height="0.05" patternTransform="rotate(45)"><rect x="0" y="0" width="0.005" height="1" fill="black"></rect></pattern><pattern id="pattern_diagonal20_black" patternUnits="objectBoundingBox" patternContentUnits="objectBoundingBox" width="0.05" height="0.05" patternTransform="rotate(45)"><rect x="0" y="0" width="0.005" height="1" fill="black"></rect></pattern><pattern id="pattern_diagonal20_black" patternUnits="objectBoundingBox" patternContentUnits="objectBoundingBox" width="0.05" height="0.05" patternTransform="rotate(45)"><rect x="0" y="0" width="0.005" height="1" fill="black"></rect></pattern><pattern id="pattern_diagonal20_black" patternUnits="objectBoundingBox" patternContentUnits="objectBoundingBox" width="0.05" height="0.05" patternTransform="rotate(45)"><rect x="0" y="0" width="0.005" height="1" fill="black"></rect></pattern><pattern id="pattern_diagonal20_black" patternUnits="objectBoundingBox" patternContentUnits="objectBoundingBox" width="0.05" height="0.05" patternTransform="rotate(45)"><rect x="0" y="0" width="0.005" height="1" fill="black"></rect></pattern><pattern id="pattern_diagonal20_black" patternUnits="objectBoundingBox" patternContentUnits="objectBoundingBox" width="0.05" height="0.05" patternTransform="rotate(45)"><rect x="0" y="0" width="0.005" height="1" fill="black"></rect></pattern><pattern id="pattern_diagonal20_black" patternUnits="objectBoundingBox" patternContentUnits="objectBoundingBox" width="0.05" height="0.05" patternTransform="rotate(45)"><rect x="0" y="0" width="0.005" height="1" fill="black"></rect></pattern><pattern id="pattern_diagonal20_black" patternUnits="objectBoundingBox" patternContentUnits="objectBoundingBox" width="0.05" height="0.05" patternTransform="rotate(45)"><rect x="0" y="0" width="0.005" height="1" fill="black"></rect></pattern><pattern id="pattern_diagonal20_black" patternUnits="objectBoundingBox" patternContentUnits="objectBoundingBox" width="0.05" height="0.05" patternTransform="rotate(45)"><rect x="0" y="0" width="0.005" height="1" fill="black"></rect></pattern><pattern id="pattern_diagonal20_black" patternUnits="objectBoundingBox" patternContentUnits="objectBoundingBox" width="0.05" height="0.05" patternTransform="rotate(45)"><rect x="0" y="0" width="0.005" height="1" fill="black"></rect></pattern><pattern id="pattern_diagonal20_black" patternUnits="objectBoundingBox" patternContentUnits="objectBoundingBox" width="0.05" height="0.05" patternTransform="rotate(45)"><rect x="0" y="0" width="0.005" height="1" fill="black"></rect></pattern><pattern id="pattern_diagonal20_black" patternUnits="objectBoundingBox" patternContentUnits="objectBoundingBox" width="0.05" height="0.05" patternTransform="rotate(45)"><rect x="0" y="0" width="0.005" height="1" fill="black"></rect></pattern><pattern id="pattern_diagonal20_black" patternUnits="objectBoundingBox" patternContentUnits="objectBoundingBox" width="0.05" height="0.05" patternTransform="rotate(45)"><rect x="0" y="0" width="0.005" height="1" fill="black"></rect></pattern><pattern id="pattern_diagonal20_black" patternUnits="objectBoundingBox" patternContentUnits="objectBoundingBox" width="0.05" height="0.05" patternTransform="rotate(45)"><rect x="0" y="0" width="0.005" height="1" fill="black"></rect></pattern><pattern id="pattern_diagonal20_black" patternUnits="objectBoundingBox" patternContentUnits="objectBoundingBox" width="0.05" height="0.05" patternTransform="rotate(45)"><rect x="0" y="0" width="0.005" height="1" fill="black"></rect></pattern><pattern id="pattern_diagonal20_black" patternUnits="objectBoundingBox" patternContentUnits="objectBoundingBox" width="0.05" height="0.05" patternTransform="rotate(45)"><rect x="0" y="0" width="0.005" height="1" fill="black"></rect></pattern><pattern id="pattern_diagonal20_black" patternUnits="objectBoundingBox" patternContentUnits="objectBoundingBox" width="0.05" height="0.05" patternTransform="rotate(45)"><rect x="0" y="0" width="0.005" height="1" fill="black"></rect></pattern><pattern id="pattern_diagonal20_black" patternUnits="objectBoundingBox" patternContentUnits="objectBoundingBox" width="0.05" height="0.05" patternTransform="rotate(45)"><rect x="0" y="0" width="0.005" height="1" fill="black"></rect></pattern><pattern id="pattern_diagonal20_black" patternUnits="objectBoundingBox" patternContentUnits="objectBoundingBox" width="0.05" height="0.05" patternTransform="rotate(45)"><rect x="0" y="0" width="0.005" height="1" fill="black"></rect></pattern><pattern id="pattern_diagonal20_black" patternUnits="objectBoundingBox" patternContentUnits="objectBoundingBox" width="0.05" height="0.05" patternTransform="rotate(45)"><rect x="0" y="0" width="0.005" height="1" fill="black"></rect></pattern></defs><g stroke="#000000"><g class="ta graphics-default" stroke="#000000" fill="none" stroke-width="0.36%"><ellipse class="wa" fill="url(&quot;#pattern_diagonal20_black&quot;)" ry="1" rx="1" cx="55" cy="-13" stroke="#000000" stroke-width="0.54%"></ellipse><ellipse class="wa" fill="url(&quot;#pattern_diagonal20_black&quot;)" ry="1" rx="1" cx="35" cy="-5" stroke="#000000" stroke-width="0.54%"></ellipse><ellipse class="wa" fill="url(&quot;#pattern_diagonal20_black&quot;)" ry="1" rx="1" cx="73" cy="-25" stroke="#000000" stroke-width="0.54%"></ellipse><ellipse class="wa" fill="url(&quot;#pattern_diagonal20_black&quot;)" ry="1" rx="1" cx="44" cy="-99" stroke="#000000" stroke-width="0.54%"></ellipse><ellipse class="wa" fill="url(&quot;#pattern_diagonal20_black&quot;)" ry="1" rx="1" cx="41" cy="-2" stroke="#000000" stroke-width="0.54%"></ellipse><ellipse class="wa" fill="url(&quot;#pattern_diagonal20_black&quot;)" ry="1" rx="1" cx="5" cy="-82" stroke="#000000" stroke-width="0.54%"></ellipse><ellipse class="wa" fill="url(&quot;#pattern_diagonal20_black&quot;)" ry="1" rx="1" cx="59" cy="-94" stroke="#000000" stroke-width="0.54%"></ellipse><ellipse class="wa" fill="url(&quot;#pattern_diagonal20_black&quot;)" ry="1" rx="1" cx="70" cy="-100" stroke="#000000" stroke-width="0.54%"></ellipse><ellipse class="wa" fill="url(&quot;#pattern_diagonal20_black&quot;)" ry="1" rx="1" cx="79" cy="-80" stroke="#000000" stroke-width="0.54%"></ellipse><ellipse class="wa" fill="url(&quot;#pattern_diagonal20_black&quot;)" ry="1" rx="1" cx="20" cy="-99" stroke="#000000" stroke-width="0.54%"></ellipse><ellipse class="wa" fill="url(&quot;#pattern_diagonal20_black&quot;)" ry="1" rx="1" cx="68" cy="-91" stroke="#000000" stroke-width="0.54%"></ellipse><ellipse class="wa" fill="url(&quot;#pattern_diagonal20_black&quot;)" ry="1" rx="1" cx="6" cy="-87" stroke="#000000" stroke-width="0.54%"></ellipse><ellipse class="wa" fill="url(&quot;#pattern_diagonal20_black&quot;)" ry="1" rx="1" cx="57" cy="-13" stroke="#000000" stroke-width="0.54%"></ellipse><ellipse class="wa" fill="url(&quot;#pattern_diagonal20_black&quot;)" ry="1" rx="1" cx="79" cy="-86" stroke="#000000" stroke-width="0.54%"></ellipse><ellipse class="wa" fill="url(&quot;#pattern_diagonal20_black&quot;)" ry="1" rx="1" cx="37" cy="-99" stroke="#000000" stroke-width="0.54%"></ellipse><ellipse class="wa" fill="url(&quot;#pattern_diagonal20_black&quot;)" ry="1" rx="1" cx="51" cy="-9" stroke="#000000" stroke-width="0.54%"></ellipse><ellipse class="wa" fill="url(&quot;#pattern_diagonal20_black&quot;)" ry="1" rx="1" cx="42" cy="-37" stroke="#000000" stroke-width="0.54%"></ellipse><ellipse class="wa" fill="url(&quot;#pattern_diagonal20_black&quot;)" ry="1" rx="1" cx="81" cy="-57" stroke="#000000" stroke-width="0.54%"></ellipse><ellipse class="wa" fill="url(&quot;#pattern_diagonal20_black&quot;)" ry="1" rx="1" cx="40" cy="-19" stroke="#000000" stroke-width="0.54%"></ellipse><ellipse class="wa" fill="url(&quot;#pattern_diagonal20_black&quot;)" ry="1" rx="1" cx="16" cy="-72" stroke="#000000" stroke-width="0.54%"></ellipse><ellipse class="wa" fill="url(&quot;#pattern_diagonal20_black&quot;)" ry="1" rx="1" cx="86" cy="-11" stroke="#000000" stroke-width="0.54%"></ellipse><ellipse class="wa" fill="url(&quot;#pattern_diagonal20_black&quot;)" ry="1" rx="1" cx="12" cy="-20" stroke="#000000" stroke-width="0.54%"></ellipse><ellipse class="wa" fill="url(&quot;#pattern_diagonal20_black&quot;)" ry="1" rx="1" cx="91" cy="-84" stroke="#000000" stroke-width="0.54%"></ellipse><ellipse class="wa" fill="url(&quot;#pattern_diagonal20_black&quot;)" ry="1" rx="1" cx="36" cy="-13" stroke="#000000" stroke-width="0.54%"></ellipse><ellipse class="wa" fill="url(&quot;#pattern_diagonal20_black&quot;)" ry="1" rx="1" cx="1" cy="-16" stroke="#000000" stroke-width="0.54%"></ellipse><ellipse class="wa" fill="url(&quot;#pattern_diagonal20_black&quot;)" ry="1" rx="1" cx="85" cy="-99" stroke="#000000" stroke-width="0.54%"></ellipse><ellipse class="wa" fill="url(&quot;#pattern_diagonal20_black&quot;)" ry="1" rx="1" cx="28" cy="-2" stroke="#000000" stroke-width="0.54%"></ellipse><ellipse class="wa" fill="url(&quot;#pattern_diagonal20_black&quot;)" ry="1" rx="1" cx="78" cy="-75" stroke="#000000" stroke-width="0.54%"></ellipse><ellipse class="wa" fill="url(&quot;#pattern_diagonal20_black&quot;)" ry="1" rx="1" cx="63" cy="-46" stroke="#000000" stroke-width="0.54%"></ellipse><ellipse class="wa" fill="url(&quot;#pattern_diagonal20_black&quot;)" ry="1" rx="1" cx="88" cy="-34" stroke="#000000" stroke-width="0.54%"></ellipse><ellipse class="wa" fill="url(&quot;#pattern_diagonal20_black&quot;)" ry="1" rx="1" cx="6" cy="-41" stroke="#000000" stroke-width="0.54%"></ellipse><ellipse class="wa" fill="url(&quot;#pattern_diagonal20_black&quot;)" ry="1" rx="1" cx="100" cy="-40" stroke="#000000" stroke-width="0.54%"></ellipse><ellipse class="wa" fill="url(&quot;#pattern_diagonal20_black&quot;)" ry="1" rx="1" cx="29" cy="-27" stroke="#000000" stroke-width="0.54%"></ellipse><ellipse class="wa" fill="url(&quot;#pattern_diagonal20_black&quot;)" ry="1" rx="1" cx="33" cy="-41" stroke="#000000" stroke-width="0.54%"></ellipse><ellipse class="wa" fill="url(&quot;#pattern_diagonal20_black&quot;)" ry="1" rx="1" cx="73" cy="-64" stroke="#000000" stroke-width="0.54%"></ellipse><ellipse class="wa" fill="url(&quot;#pattern_diagonal20_black&quot;)" ry="1" rx="1" cx="22" cy="-44" stroke="#000000" stroke-width="0.54%"></ellipse><ellipse class="wa" fill="url(&quot;#pattern_diagonal20_black&quot;)" ry="1" rx="1" cx="82" cy="-28" stroke="#000000" stroke-width="0.54%"></ellipse><ellipse class="wa" fill="url(&quot;#pattern_diagonal20_black&quot;)" ry="1" rx="1" cx="27" cy="-21" stroke="#000000" stroke-width="0.54%"></ellipse><ellipse class="wa" fill="url(&quot;#pattern_diagonal20_black&quot;)" ry="1" rx="1" cx="42" cy="-2" stroke="#000000" stroke-width="0.54%"></ellipse><ellipse class="wa" fill="url(&quot;#pattern_diagonal20_black&quot;)" ry="1" rx="1" cx="71" cy="-27" stroke="#000000" stroke-width="0.54%"></ellipse><ellipse class="wa" fill="url(&quot;#pattern_diagonal20_black&quot;)" ry="1" rx="1" cx="100" cy="-69" stroke="#000000" stroke-width="0.54%"></ellipse><ellipse class="wa" fill="url(&quot;#pattern_diagonal20_black&quot;)" ry="1" rx="1" cx="83" cy="-37" stroke="#000000" stroke-width="0.54%"></ellipse><ellipse class="wa" fill="url(&quot;#pattern_diagonal20_black&quot;)" ry="1" rx="1" cx="44" cy="-91" stroke="#000000" stroke-width="0.54%"></ellipse><ellipse class="wa" fill="url(&quot;#pattern_diagonal20_black&quot;)" ry="1" rx="1" cx="5" cy="-28" stroke="#000000" stroke-width="0.54%"></ellipse><ellipse class="wa" fill="url(&quot;#pattern_diagonal20_black&quot;)" ry="1" rx="1" cx="81" cy="-76" stroke="#000000" stroke-width="0.54%"></ellipse><ellipse class="wa" fill="url(&quot;#pattern_diagonal20_black&quot;)" ry="1" rx="1" cx="14" cy="-18" stroke="#000000" stroke-width="0.54%"></ellipse><ellipse class="wa" fill="url(&quot;#pattern_diagonal20_black&quot;)" ry="1" rx="1" cx="36" cy="-31" stroke="#000000" stroke-width="0.54%"></ellipse><ellipse class="wa" fill="url(&quot;#pattern_diagonal20_black&quot;)" ry="1" rx="1" cx="74" cy="-83" stroke="#000000" stroke-width="0.54%"></ellipse><ellipse class="wa" fill="url(&quot;#pattern_diagonal20_black&quot;)" ry="1" rx="1" cx="13" cy="-28" stroke="#000000" stroke-width="0.54%"></ellipse><ellipse class="wa" fill="url(&quot;#pattern_diagonal20_black&quot;)" ry="1" rx="1" cx="54" cy="-69" stroke="#000000" stroke-width="0.54%"></ellipse><ellipse class="wa" fill="url(&quot;#pattern_diagonal20_black&quot;)" ry="1" rx="1" cx="100" cy="-38" stroke="#000000" stroke-width="0.54%"></ellipse><ellipse class="wa" fill="url(&quot;#pattern_diagonal20_black&quot;)" ry="1" rx="1" cx="11" cy="-27" stroke="#000000" stroke-width="0.54%"></ellipse><ellipse class="wa" fill="url(&quot;#pattern_diagonal20_black&quot;)" ry="1" rx="1" cx="73" cy="-57" stroke="#000000" stroke-width="0.54%"></ellipse><ellipse class="wa" fill="url(&quot;#pattern_diagonal20_black&quot;)" ry="1" rx="1" cx="18" cy="-23" stroke="#000000" stroke-width="0.54%"></ellipse><ellipse class="wa" fill="url(&quot;#pattern_diagonal20_black&quot;)" ry="1" rx="1" cx="56" cy="-70" stroke="#000000" stroke-width="0.54%"></ellipse><ellipse class="wa" fill="url(&quot;#pattern_diagonal20_black&quot;)" ry="1" rx="1" cx="10" cy="-33" stroke="#000000" stroke-width="0.54%"></ellipse><ellipse class="wa" fill="url(&quot;#pattern_diagonal20_black&quot;)" ry="1" rx="1" cx="39" cy="-73" stroke="#000000" stroke-width="0.54%"></ellipse><ellipse class="wa" fill="url(&quot;#pattern_diagonal20_black&quot;)" ry="1" rx="1" cx="6" cy="-89" stroke="#000000" stroke-width="0.54%"></ellipse><ellipse class="wa" fill="url(&quot;#pattern_diagonal20_black&quot;)" ry="1" rx="1" cx="93" cy="-90" stroke="#000000" stroke-width="0.54%"></ellipse><ellipse class="wa" fill="url(&quot;#pattern_diagonal20_black&quot;)" ry="1" rx="1" cx="75" cy="-51" stroke="#000000" stroke-width="0.54%"></ellipse><ellipse class="wa" fill="url(&quot;#pattern_diagonal20_black&quot;)" ry="1" rx="1" cx="84" cy="-99" stroke="#000000" stroke-width="0.54%"></ellipse><ellipse class="wa" fill="url(&quot;#pattern_diagonal20_black&quot;)" ry="1" rx="1" cx="92" cy="-45" stroke="#000000" stroke-width="0.54%"></ellipse><ellipse class="wa" fill="url(&quot;#pattern_diagonal20_black&quot;)" ry="1" rx="1" cx="0" cy="-71" stroke="#000000" stroke-width="0.54%"></ellipse><ellipse class="wa" fill="url(&quot;#pattern_diagonal20_black&quot;)" ry="1" rx="1" cx="18" cy="-30" stroke="#000000" stroke-width="0.54%"></ellipse><ellipse class="wa" fill="url(&quot;#pattern_diagonal20_black&quot;)" ry="1" rx="1" cx="31" cy="-59" stroke="#000000" stroke-width="0.54%"></ellipse><ellipse class="wa" fill="url(&quot;#pattern_diagonal20_black&quot;)" ry="1" rx="1" cx="0" cy="-44" stroke="#000000" stroke-width="0.54%"></ellipse><ellipse class="wa" fill="url(&quot;#pattern_diagonal20_black&quot;)" ry="1" rx="1" cx="43" cy="0" stroke="#000000" stroke-width="0.54%"></ellipse><ellipse class="wa" fill="url(&quot;#pattern_diagonal20_black&quot;)" ry="1" rx="1" cx="38" cy="-95" stroke="#000000" stroke-width="0.54%"></ellipse><ellipse class="wa" fill="url(&quot;#pattern_diagonal20_black&quot;)" ry="1" rx="1" cx="55" cy="-98" stroke="#000000" stroke-width="0.54%"></ellipse><ellipse class="wa" fill="url(&quot;#pattern_diagonal20_black&quot;)" ry="1" rx="1" cx="81" cy="-2" stroke="#000000" stroke-width="0.54%"></ellipse><ellipse class="wa" fill="url(&quot;#pattern_diagonal20_black&quot;)" ry="1" rx="1" cx="1" cy="-61" stroke="#000000" stroke-width="0.54%"></ellipse><ellipse class="wa" fill="url(&quot;#pattern_diagonal20_black&quot;)" ry="1" rx="1" cx="66" cy="-90" stroke="#000000" stroke-width="0.54%"></ellipse><ellipse class="wa" fill="url(&quot;#pattern_diagonal20_black&quot;)" ry="1" rx="1" cx="83" cy="-48" stroke="#000000" stroke-width="0.54%"></ellipse><ellipse class="wa" fill="url(&quot;#pattern_diagonal20_black&quot;)" ry="1" rx="1" cx="73" cy="-78" stroke="#000000" stroke-width="0.54%"></ellipse><ellipse class="wa" fill="url(&quot;#pattern_diagonal20_black&quot;)" ry="1" rx="1" cx="19" cy="-70" stroke="#000000" stroke-width="0.54%"></ellipse><ellipse class="wa" fill="url(&quot;#pattern_diagonal20_black&quot;)" ry="1" rx="1" cx="31" cy="-45" stroke="#000000" stroke-width="0.54%"></ellipse><ellipse class="wa" fill="url(&quot;#pattern_diagonal20_black&quot;)" ry="1" rx="1" cx="74" cy="-61" stroke="#000000" stroke-width="0.54%"></ellipse><ellipse class="wa" fill="url(&quot;#pattern_diagonal20_black&quot;)" ry="1" rx="1" cx="60" cy="-70" stroke="#000000" stroke-width="0.54%"></ellipse><ellipse class="wa" fill="url(&quot;#pattern_diagonal20_black&quot;)" ry="1" rx="1" cx="35" cy="-33" stroke="#000000" stroke-width="0.54%"></ellipse><ellipse class="wa" fill="url(&quot;#pattern_diagonal20_black&quot;)" ry="1" rx="1" cx="23" cy="-36" stroke="#000000" stroke-width="0.54%"></ellipse><ellipse class="wa" fill="url(&quot;#pattern_diagonal20_black&quot;)" ry="1" rx="1" cx="62" cy="0" stroke="#000000" stroke-width="0.54%"></ellipse><ellipse class="wa" fill="url(&quot;#pattern_diagonal20_black&quot;)" ry="1" rx="1" cx="63" cy="-65" stroke="#000000" stroke-width="0.54%"></ellipse><ellipse class="wa" fill="url(&quot;#pattern_diagonal20_black&quot;)" ry="1" rx="1" cx="65" cy="-96" stroke="#000000" stroke-width="0.54%"></ellipse><ellipse class="wa" fill="url(&quot;#pattern_diagonal20_black&quot;)" ry="1" rx="1" cx="60" cy="-10" stroke="#000000" stroke-width="0.54%"></ellipse><ellipse class="wa" fill="url(&quot;#pattern_diagonal20_black&quot;)" ry="1" rx="1" cx="95" cy="-91" stroke="#000000" stroke-width="0.54%"></ellipse><ellipse class="wa" fill="url(&quot;#pattern_diagonal20_black&quot;)" ry="1" rx="1" cx="44" cy="-72" stroke="#000000" stroke-width="0.54%"></ellipse><ellipse class="wa" fill="url(&quot;#pattern_diagonal20_black&quot;)" ry="1" rx="1" cx="29" cy="-48" stroke="#000000" stroke-width="0.54%"></ellipse><ellipse class="wa" fill="url(&quot;#pattern_diagonal20_black&quot;)" ry="1" rx="1" cx="4" cy="-40" stroke="#000000" stroke-width="0.54%"></ellipse><ellipse class="wa" fill="url(&quot;#pattern_diagonal20_black&quot;)" ry="1" rx="1" cx="17" cy="-69" stroke="#000000" stroke-width="0.54%"></ellipse><ellipse class="wa" fill="url(&quot;#pattern_diagonal20_black&quot;)" ry="1" rx="1" cx="5" cy="-90" stroke="#000000" stroke-width="0.54%"></ellipse><ellipse class="wa" fill="url(&quot;#pattern_diagonal20_black&quot;)" ry="1" rx="1" cx="78" cy="-44" stroke="#000000" stroke-width="0.54%"></ellipse><ellipse class="wa" fill="url(&quot;#pattern_diagonal20_black&quot;)" ry="1" rx="1" cx="60" cy="-30" stroke="#000000" stroke-width="0.54%"></ellipse><ellipse class="wa" fill="url(&quot;#pattern_diagonal20_black&quot;)" ry="1" rx="1" cx="66" cy="-40" stroke="#000000" stroke-width="0.54%"></ellipse><ellipse class="wa" fill="url(&quot;#pattern_diagonal20_black&quot;)" ry="1" rx="1" cx="91" cy="-54" stroke="#000000" stroke-width="0.54%"></ellipse><ellipse class="wa" fill="url(&quot;#pattern_diagonal20_black&quot;)" ry="1" rx="1" cx="58" cy="-57" stroke="#000000" stroke-width="0.54%"></ellipse><ellipse class="wa" fill="url(&quot;#pattern_diagonal20_black&quot;)" ry="1" rx="1" cx="36" cy="-25" stroke="#000000" stroke-width="0.54%"></ellipse><ellipse class="wa" fill="url(&quot;#pattern_diagonal20_black&quot;)" ry="1" rx="1" cx="98" cy="-63" stroke="#000000" stroke-width="0.54%"></ellipse><ellipse class="wa" fill="url(&quot;#pattern_diagonal20_black&quot;)" ry="1" rx="1" cx="68" cy="-29" stroke="#000000" stroke-width="0.54%"></ellipse><ellipse class="wa" fill="url(&quot;#pattern_diagonal20_black&quot;)" ry="1" rx="1" cx="42" cy="-25" stroke="#000000" stroke-width="0.54%"></ellipse><ellipse class="wa" fill="url(&quot;#pattern_diagonal20_black&quot;)" ry="1" rx="1" cx="15" cy="-11" stroke="#000000" stroke-width="0.54%"></ellipse><line stroke="#FF0000" x1="43" x2="62" y1="0" y2="0" fill="none" stroke-width="0.36%"></line><line stroke="#FF0000" x1="62" x2="81" y1="0" y2="-2" fill="none" stroke-width="0.36%"></line><line stroke="#FF0000" x1="81" x2="86" y1="-2" y2="-11" fill="none" stroke-width="0.36%"></line><line stroke="#FF0000" x1="86" x2="100" y1="-11" y2="-38" fill="none" stroke-width="0.36%"></line><line stroke="#FF0000" x1="100" x2="100" y1="-38" y2="-40" fill="none" stroke-width="0.36%"></line><line stroke="#FF0000" x1="100" x2="100" y1="-40" y2="-69" fill="none" stroke-width="0.36%"></line><line stroke="#FF0000" x1="100" x2="95" y1="-69" y2="-91" fill="none" stroke-width="0.36%"></line><line stroke="#FF0000" x1="95" x2="85" y1="-91" y2="-99" fill="none" stroke-width="0.36%"></line><line stroke="#FF0000" x1="85" x2="70" y1="-99" y2="-100" fill="none" stroke-width="0.36%"></line><line stroke="#FF0000" x1="70" x2="20" y1="-100" y2="-99" fill="none" stroke-width="0.36%"></line><line stroke="#FF0000" x1="20" x2="5" y1="-99" y2="-90" fill="none" stroke-width="0.36%"></line><line stroke="#FF0000" x1="5" x2="0" y1="-90" y2="-71" fill="none" stroke-width="0.36%"></line><line stroke="#FF0000" x1="0" x2="0" y1="-71" y2="-44" fill="none" stroke-width="0.36%"></line><line stroke="#FF0000" x1="0" x2="1" y1="-44" y2="-16" fill="none" stroke-width="0.36%"></line><line stroke="#FF0000" x1="1" x2="28" y1="-16" y2="-2" fill="none" stroke-width="0.36%"></line><line stroke="#FF0000" x1="28" x2="43" y1="-2" y2="0" fill="none" stroke-width="0.36%"></line></g></g></svg>